<svg xmlns="http://www.w3.org/2000/svg" xmlns:xlink="http://www.w3.org/1999/xlink" width="358.37" height="50.392" viewBox="0 0 358.37 50.392">
  <defs>
    <linearGradient id="linear-gradient" x1="0.212" y1="0.822" x2="0.878" y2="0.031" gradientUnits="objectBoundingBox">
      <stop offset="0" stop-color="#f3c800"/>
      <stop offset="0.35" stop-color="#f3c800"/>
      <stop offset="1" stop-color="#1a6c49"/>
    </linearGradient>
  </defs>
  <g id="アートボード_13" data-name="アートボード 13" transform="translate(0.001 0.006)">
    <path id="Path_108" data-name="Path 108" d="M24.584,6.778H21.45V.655a.3.3,0,0,1,.3-.3h2.548a.3.3,0,0,1,.3.3V6.778Z" transform="translate(-10.713 -0.183)" fill="#1a6c49"/>
    <path id="Path_109" data-name="Path 109" d="M.52,31.256,0,28.758a.283.283,0,0,1,.22-.34,27.359,27.359,0,0,0,12.8-6.608,26.566,26.566,0,0,0,4.61-5.632H3.148V13.335a.3.3,0,0,1,.3-.3h16.85a1.575,1.575,0,0,1,1.332.736,1.559,1.559,0,0,1,.075,1.517,29.97,29.97,0,0,1-6.533,8.81A30.463,30.463,0,0,1,.87,31.482a.291.291,0,0,1-.345-.23Z" transform="translate(0 -6.515)" fill="#1a6c49"/>
    <path id="Path_110" data-name="Path 110" d="M24.253,50.424H21.705a.3.3,0,0,1-.3-.3v-12h3.134v12a.3.3,0,0,1-.3.3Z" transform="translate(-10.693 -19.046)" fill="#1a6c49"/>
    <path id="Path_111" data-name="Path 111" d="M37.465,41.824a.3.3,0,0,1-.335.26,24.442,24.442,0,0,1-12.379-5.4l2-2.418a21.285,21.285,0,0,0,10.773,4.7.284.284,0,0,1,.25.32l-.3,2.528Z" transform="translate(-12.361 -17.118)" fill="#1a6c49"/>
    <rect id="Rectangle_33" data-name="Rectangle 33" width="3.134" height="6.232" rx="0.59" transform="translate(33.929 11.385)" fill="#1a6c49"/>
    <rect id="Rectangle_34" data-name="Rectangle 34" width="3.134" height="6.232" rx="0.59" transform="translate(39.28 11.385)" fill="#1a6c49"/>
    <path id="Path_112" data-name="Path 112" d="M73.13,39.239a.292.292,0,0,1,.29-.3c1.056.01,4.49.01,4.63.005a4.653,4.653,0,0,0,2.478-.606,3.666,3.666,0,0,0,1.6-2.668l.16-12.665a.3.3,0,0,1,.3-.29l2.548.035a.3.3,0,0,1,.29.3l-.165,12.735v.12A6.846,6.846,0,0,1,82.2,41a7.64,7.64,0,0,1-4.11,1.091H77.8c-.11,0-3.389,0-4.4-.005a.288.288,0,0,1-.285-.3V39.239Z" transform="translate(-36.518 -11.35)" fill="#1a6c49"/>
    <rect id="Rectangle_35" data-name="Rectangle 35" width="3.134" height="30.01" rx="0.59" transform="translate(60.23 0.973)" fill="#1a6c49"/>
    <path id="Path_113" data-name="Path 113" d="M135.827,35.394a.289.289,0,0,1-.39-.115,11.08,11.08,0,0,0-3.329-3.689,11.307,11.307,0,0,0-6.828-1.947l-.13-3.134a14.431,14.431,0,0,1,8.745,2.5,14.158,14.158,0,0,1,4.305,4.8.3.3,0,0,1-.125.405l-2.253,1.181Z" transform="translate(-62.502 -13.236)" fill="#1a6c49"/>
    <path id="Path_114" data-name="Path 114" d="M172.385,41.321A4.132,4.132,0,0,1,168.26,37.2V19.555a.4.4,0,0,1,.405-.405h2.353a.4.4,0,0,1,.405.405V37.2a.961.961,0,0,0,.961.961h19.182a.961.961,0,0,0,.961-.961v-.556a.4.4,0,0,1,.405-.405h2.353a.4.4,0,0,1,.405.405V37.2a4.132,4.132,0,0,1-4.125,4.125H172.385Z" transform="translate(-84.032 -9.567)" fill="#1f8419"/>
    <path id="Path_115" data-name="Path 115" d="M191.677,41.321H172.495a4.014,4.014,0,0,1-4.015-4.015V19.665a.3.3,0,0,1,.3-.3h2.353a.3.3,0,0,1,.3.3V37.311a1.078,1.078,0,0,0,1.076,1.076h19.182a1.072,1.072,0,0,0,1.071-1.071V36.76a.3.3,0,0,1,.3-.3H195.4a.3.3,0,0,1,.3.3v.556a4.014,4.014,0,0,1-4.015,4.015Z" transform="translate(-84.142 -9.677)" fill="#1a6c49"/>
    <path id="Path_116" data-name="Path 116" d="M192.944,26.361a.4.4,0,0,1-.405-.405V8.155a.961.961,0,0,0-.961-.961H172.395a.961.961,0,0,0-.961.961V9a.4.4,0,0,1-.405.405h-2.353A.4.4,0,0,1,168.27,9V8.155a4.132,4.132,0,0,1,4.125-4.125h19.182A4.132,4.132,0,0,1,195.7,8.155V25.961a.4.4,0,0,1-.405.405h-2.353Z" transform="translate(-84.037 -2.016)" fill="#1f8419"/>
    <path id="Path_117" data-name="Path 117" d="M195.387,26.361h-2.353a.3.3,0,0,1-.3-.3V8.265a1.078,1.078,0,0,0-1.076-1.076H172.48A1.075,1.075,0,0,0,171.4,8.265v.846a.3.3,0,0,1-.3.3h-2.353a.3.3,0,0,1-.3-.3V8.265a4.014,4.014,0,0,1,4.015-4.015h19.182a4.014,4.014,0,0,1,4.015,4.015V26.071a.3.3,0,0,1-.3.3Z" transform="translate(-84.132 -2.126)" fill="#1a6c49"/>
    <path id="Path_118" data-name="Path 118" d="M195.293,21.3a3.365,3.365,0,0,0-3.269-1.927,8.266,8.266,0,0,0-3.9,1.081,12.658,12.658,0,0,0-2.943,2.077.456.456,0,0,0-.115.556.388.388,0,0,0,.325.155.539.539,0,0,0,.36-.14,14.108,14.108,0,0,1,1.927-1.231,7.923,7.923,0,0,1,3.814-1.156,4.919,4.919,0,0,1,1.3.165c1.276.441,1.462,1.907,1.091,3.079a11.825,11.825,0,0,1-5.762,6.4,8.7,8.7,0,0,1-3.454.936,1.686,1.686,0,0,1-1.372-.481c-.671-.831-.14-2.753,1.241-4.515a1.731,1.731,0,0,0-.385-2.092,1.6,1.6,0,0,0-1.031-.36,1.79,1.79,0,0,0-1.417.7,7.491,7.491,0,0,0-1.767,4.716,4.819,4.819,0,0,0,1.006,3.294,4.366,4.366,0,0,0,3.1,1.477h.035c3.219,0,6.2-1.637,9.106-5.006,2.208-2.563,3.054-5.672,2.107-7.739Z" transform="translate(-89.86 -9.677)" fill="url(#linear-gradient)"/>
    <path id="Path_119" data-name="Path 119" d="M246.327,12.832l-4.17-3.454A.98.98,0,0,1,242,8.032l5.111-6.768a.29.29,0,0,1,.411-.055L249.4,2.625a.29.29,0,0,1,.055.41l-3.419,4.525a.985.985,0,0,0,.155,1.347L248.2,10.57l-1.877,2.263Z" transform="translate(-120.76 -0.576)" fill="#1a6c49"/>
    <path id="Path_120" data-name="Path 120" d="M243.014,24.427a1.469,1.469,0,0,1-1.181-2.343l8.435-11.4a.29.29,0,0,1,.41-.06l1.892,1.4a.29.29,0,0,1,.06.41l-6,8.114a.587.587,0,0,0,.476.936l6.433-.015.01,2.938-10.522.02h0Z" transform="translate(-120.632 -5.277)" fill="#1a6c49"/>
    <path id="Path_121" data-name="Path 121" d="M262.765,33.637a6.532,6.532,0,0,1-2.9-2.077,6.807,6.807,0,0,1-1.462-4.075l2.938-.055a3.811,3.811,0,0,0,.816,2.3,3.629,3.629,0,0,0,1.607,1.146l-1,2.768Z" transform="translate(-129.049 -13.702)" fill="#1a6c49"/>
    <path id="Path_122" data-name="Path 122" d="M253.508,50.751h-2.353a.3.3,0,0,1-.3-.3V37.06H253.8v13.4a.3.3,0,0,1-.3.3Z" transform="translate(-125.284 -18.511)" fill="#1a6c49"/>
    <rect id="Rectangle_36" data-name="Rectangle 36" width="8.695" height="2.938" rx="0.59" transform="matrix(0.194, -0.981, 0.981, 0.194, 120.078, 29.189)" fill="#1a6c49"/>
    <rect id="Rectangle_37" data-name="Rectangle 37" width="2.938" height="6.708" rx="0.59" transform="translate(129.102 21.373) rotate(-17.46)" fill="#1a6c49"/>
    <path id="Path_123" data-name="Path 123" d="M282.991,20.5h-12.63a1.471,1.471,0,0,1-1.472-1.472V9a1.471,1.471,0,0,1,1.472-1.472h12.63A1.471,1.471,0,0,1,284.463,9V19.023A1.471,1.471,0,0,1,282.991,20.5Zm-11.158-2.938h9.691V10.473h-9.691Z" transform="translate(-134.288 -3.764)" fill="#1a6c49"/>
    <path id="Path_124" data-name="Path 124" d="M280.513,5.368,277.77,4.312l1.587-4.13a.3.3,0,0,1,.38-.17l2.2.846a.3.3,0,0,1,.17.38l-1.587,4.13Z" transform="translate(-138.723)" fill="#1a6c49"/>
    <path id="Path_125" data-name="Path 125" d="M280.679,20.488H272.81V17.55h7.869a.3.3,0,0,1,.3.3V20.2a.3.3,0,0,1-.3.3Z" transform="translate(-136.246 -8.768)" fill="#1a6c49"/>
    <path id="Path_126" data-name="Path 126" d="M281.364,48.718h-3.209a.3.3,0,0,1-.3-.3V46.07a.3.3,0,0,1,.3-.3h1.737V33.06h2.938V47.247a1.471,1.471,0,0,1-1.472,1.472Z" transform="translate(-138.768 -16.514)" fill="#1a6c49"/>
    <path id="Path_127" data-name="Path 127" d="M267.3,50.194l-1.266-1.982a.288.288,0,0,1,.085-.4,18.427,18.427,0,0,0,6.057-6.558l-3.935.03a.3.3,0,0,1-.3-.29l-.02-2.353a.3.3,0,0,1,.29-.3l6.267-.05a1.524,1.524,0,0,1,1.226.641,1.467,1.467,0,0,1,.15,1.377,21.419,21.419,0,0,1-8.15,9.972.3.3,0,0,1-.415-.09Z" transform="translate(-132.84 -19.131)" fill="#1a6c49"/>
    <path id="Path_128" data-name="Path 128" d="M289.843,48.237a7.175,7.175,0,0,1-2.948-.651c-3.074-1.377-5.021-5.056-4.966-9.376l2.938.035c-.04,3.149,1.226,5.757,3.229,6.658a3.974,3.974,0,0,0,2.768.255A4.5,4.5,0,0,0,293.5,42.71a.286.286,0,0,1,.365-.145l2.2.841a.287.287,0,0,1,.165.385,7.463,7.463,0,0,1-4.56,4.185,6.67,6.67,0,0,1-1.832.255Z" transform="translate(-140.8 -19.086)" fill="#1a6c49"/>
    <rect id="Rectangle_38" data-name="Rectangle 38" width="5.567" height="2.938" rx="0.59" transform="translate(145.725 22.345) rotate(-46.82)" fill="#1a6c49"/>
    <path id="Path_129" data-name="Path 129" d="M343.9,32.968H325.465a.3.3,0,0,1-.3-.3V30.124a.3.3,0,0,1,.3-.3h16.87v-17.4h-16.87a.3.3,0,0,1-.3-.3V9.585a.3.3,0,0,1,.3-.3H343.9a1.566,1.566,0,0,1,1.567,1.567V31.4a1.566,1.566,0,0,1-1.567,1.567Z" transform="translate(-162.395 -4.643)" fill="#1a6c49"/>
    <path id="Path_130" data-name="Path 130" d="M462.018,12.049H451.285a.3.3,0,0,1-.3-.3V9.205a.3.3,0,0,1,.3-.3h10.788a.3.3,0,0,1,.3.3V11.7a.348.348,0,0,1-.35.35Z" transform="translate(-225.232 -4.453)" fill="#1a6c49"/>
    <rect id="Rectangle_39" data-name="Rectangle 39" width="12.785" height="3.134" rx="0.59" transform="translate(252.735 15.47)" fill="#1a6c49"/>
    <rect id="Rectangle_40" data-name="Rectangle 40" width="15.258" height="3.134" rx="0.59" transform="translate(251.498 25.342)" fill="#1f8419"/>
    <rect id="Rectangle_41" data-name="Rectangle 41" width="11.378" height="3.134" rx="0.59" transform="translate(228.392 24.97)" fill="#1a6c49"/>
    <rect id="Rectangle_42" data-name="Rectangle 42" width="3.134" height="10.592" transform="translate(257.56 17.272)" fill="#1a6c49"/>
    <path id="Path_131" data-name="Path 131" d="M548.276,33.427h-.19a.183.183,0,0,1-.07-.035.232.232,0,0,1-.06-.21c.05-1.422.1-2.458.12-2.608a.291.291,0,0,1,.28-.28,6.651,6.651,0,0,0,5.071-2.328,6.227,6.227,0,0,0,1.281-3.9l.025-13.736a.3.3,0,0,1,.3-.3h2.548a.3.3,0,0,1,.3.3l-.025,13.711a9.374,9.374,0,0,1-1.952,5.862,9.77,9.77,0,0,1-7.619,3.524Z" transform="translate(-273.656 -5.012)" fill="#1a6c49"/>
    <path id="Path_132" data-name="Path 132" d="M582.436,32.818a18.644,18.644,0,0,1-3.6-.456c-.365-.075-.681-.155-.941-.22a.349.349,0,0,1-.26-.34V8.945a.3.3,0,0,1,.3-.3h2.548a.3.3,0,0,1,.3.3V29.559c3.519.531,6.873-.6,8.6-2.983a7.319,7.319,0,0,0,1.307-4.38.29.29,0,0,1,.28-.3l2.543-.1a.3.3,0,0,1,.31.285,10.424,10.424,0,0,1-1.9,6.327,11.561,11.561,0,0,1-9.471,4.405Z" transform="translate(-288.478 -4.323)" fill="#1a6c49"/>
    <path id="Path_133" data-name="Path 133" d="M632.623,12.079H621.835a.3.3,0,0,1-.3-.3V9.165a.224.224,0,0,1,.225-.225h10.923a.224.224,0,0,1,.225.225v2.618a.3.3,0,0,1-.3.3Z" transform="translate(-310.407 -4.468)" fill="#1a6c49"/>
    <path id="Path_134" data-name="Path 134" d="M632.623,23.724H621.765a.224.224,0,0,1-.225-.225V20.815a.224.224,0,0,1,.225-.225h10.923a.224.224,0,0,1,.225.225v2.618a.3.3,0,0,1-.3.3Z" transform="translate(-310.407 -10.286)" fill="#1a6c49"/>
    <rect id="Rectangle_43" data-name="Rectangle 43" width="15.258" height="3.134" rx="0.59" transform="translate(343.11 30.192)" fill="#1f8419"/>
    <rect id="Rectangle_44" data-name="Rectangle 44" width="3.134" height="4.615" rx="0.59" transform="translate(325.82 4.327)" fill="#1a6c49"/>
    <rect id="Rectangle_45" data-name="Rectangle 45" width="3.134" height="4.615" rx="0.59" transform="translate(330.621 4.327)" fill="#1a6c49"/>
    <path id="Path_135" data-name="Path 135" d="M682.293,41.858l-.035-7.093a.592.592,0,0,0-.6-.586l-5.672.06a.3.3,0,0,1-.3-.29L675.67,31.4a.3.3,0,0,1,.29-.3l6.978-.075a2.293,2.293,0,0,1,1.672.686,2.675,2.675,0,0,1,.781,1.9l.04,8.225-3.134.015Z" transform="translate(-337.44 -15.5)" fill="#1a6c49"/>
    <rect id="Rectangle_46" data-name="Rectangle 46" width="11.378" height="3.134" rx="0.59" transform="translate(192.339 4.562)" fill="#1a6c49"/>
    <path id="Path_136" data-name="Path 136" d="M402.013,32.748H391.04a.348.348,0,0,1-.35-.35v-2.8a.348.348,0,0,1,.35-.35h11.033a5.5,5.5,0,0,0,3.749-1.4,5.226,5.226,0,0,0,1.682-3.9L407.38,9.09a.355.355,0,0,1,.345-.355l2.8-.025a.355.355,0,0,1,.355.345l.125,14.852a8.7,8.7,0,0,1-2.548,6.247,9.065,9.065,0,0,1-6.448,2.583Z" transform="translate(-195.117 -4.353)" fill="#1a6c49"/>
    <path id="Path_137" data-name="Path 137" d="M467.6,32.748H456.63a.348.348,0,0,1-.35-.35v-2.8a.348.348,0,0,1,.35-.35h11.033a5.5,5.5,0,0,0,3.749-1.4,5.226,5.226,0,0,0,1.682-3.9L472.97,9.09a.355.355,0,0,1,.345-.355l2.8-.025a.355.355,0,0,1,.355.345l.125,14.852a8.694,8.694,0,0,1-2.548,6.247,9.065,9.065,0,0,1-6.448,2.583Z" transform="translate(-227.874 -4.353)" fill="#1a6c49"/>
    <path id="Path_138" data-name="Path 138" d="M637.693,40.905H626.72a.348.348,0,0,1-.35-.35v-2.8a.348.348,0,0,1,.35-.35h11.033a5.673,5.673,0,0,0,5.677-5.3L643.3,24.08a.355.355,0,0,1,.345-.355l2.8-.025a.355.355,0,0,1,.355.345l.125,8.019a8.939,8.939,0,0,1-2.793,6.247,9.065,9.065,0,0,1-6.448,2.583Z" transform="translate(-312.819 -11.839)" fill="#1a6c49"/>
    <path id="Path_139" data-name="Path 139" d="M216.28,87.85h1.171v6.307H216.28Z" transform="translate(-108.014 -43.877)" fill="#889387"/>
    <path id="Path_140" data-name="Path 140" d="M231.227,87.85v6.307h-.966l-3.479-4.27v4.27H225.62V87.85h.966l3.479,4.27V87.85Z" transform="translate(-112.679 -43.877)" fill="#889387"/>
    <path id="Path_141" data-name="Path 141" d="M244.272,88.841H242.18V87.85h5.351v.991h-2.092v5.316h-1.171V88.841Z" transform="translate(-120.949 -43.877)" fill="#889387"/>
    <path id="Path_142" data-name="Path 142" d="M262.971,93.176v.981H258.24V87.85h4.605v.981h-3.434v1.642h3.044v.966h-3.044v1.737Z" transform="translate(-128.97 -43.877)" fill="#889387"/>
    <path id="Path_143" data-name="Path 143" d="M278.025,94.157l-1.286-1.847c-.055.005-.135.01-.245.01h-1.422v1.837H273.9V87.85h2.593a3.488,3.488,0,0,1,1.427.27,2.076,2.076,0,0,1,.931.776,2.356,2.356,0,0,1-.02,2.423,2.041,2.041,0,0,1-1,.766l1.452,2.072h-1.261Zm-.421-4.991a1.8,1.8,0,0,0-1.161-.325h-1.372v2.513h1.372a1.775,1.775,0,0,0,1.161-.33,1.141,1.141,0,0,0,.4-.931,1.124,1.124,0,0,0-.4-.926Z" transform="translate(-136.79 -43.877)" fill="#889387"/>
    <path id="Path_144" data-name="Path 144" d="M296.257,87.85v6.307h-.966l-3.479-4.27v4.27H290.65V87.85h.966l3.479,4.27V87.85Z" transform="translate(-145.156 -43.877)" fill="#889387"/>
    <path id="Path_145" data-name="Path 145" d="M313.571,93.176v.981H308.84V87.85h4.605v.981h-3.434v1.642h3.044v.966h-3.044v1.737Z" transform="translate(-154.24 -43.877)" fill="#889387"/>
    <path id="Path_146" data-name="Path 146" d="M324.962,88.841H322.87V87.85h5.351v.991h-2.092v5.316h-1.171V88.841Z" transform="translate(-161.247 -43.877)" fill="#889387"/>
    <path id="Path_147" data-name="Path 147" d="M348.252,93.737a3.083,3.083,0,0,1-1.206-1.156,3.21,3.21,0,0,1-.436-1.667,3.128,3.128,0,0,1,1.652-2.823,3.542,3.542,0,0,1,1.727-.42,3.627,3.627,0,0,1,1.417.27,2.874,2.874,0,0,1,1.081.786l-.756.711a2.213,2.213,0,0,0-1.687-.741,2.349,2.349,0,0,0-1.161.285,2.029,2.029,0,0,0-.8.791,2.281,2.281,0,0,0-.29,1.146,2.244,2.244,0,0,0,.29,1.146,2.062,2.062,0,0,0,.8.791,2.349,2.349,0,0,0,1.161.285,2.215,2.215,0,0,0,1.687-.746l.756.721a2.906,2.906,0,0,1-1.086.786,3.627,3.627,0,0,1-1.417.27,3.556,3.556,0,0,1-1.727-.42Z" transform="translate(-173.103 -43.787)" fill="#889387"/>
    <path id="Path_148" data-name="Path 148" d="M364.947,93.737a3.12,3.12,0,0,1-1.216-1.161,3.355,3.355,0,0,1,0-3.324,3.12,3.12,0,0,1,1.216-1.161,3.8,3.8,0,0,1,3.474,0,3.278,3.278,0,0,1,1.216,4.49,3.108,3.108,0,0,1-1.216,1.156,3.8,3.8,0,0,1-3.474,0Zm2.873-.891a2.069,2.069,0,0,0,.791-.791,2.3,2.3,0,0,0,.29-1.141,2.251,2.251,0,0,0-.29-1.141,2,2,0,0,0-.791-.791,2.32,2.32,0,0,0-1.136-.285,2.267,2.267,0,0,0-1.136.285,2.07,2.07,0,0,0-.791.791,2.3,2.3,0,0,0-.29,1.141,2.251,2.251,0,0,0,.29,1.141,2,2,0,0,0,.791.791,2.32,2.32,0,0,0,1.136.285A2.267,2.267,0,0,0,367.82,92.846Z" transform="translate(-181.433 -43.787)" fill="#889387"/>
    <path id="Path_149" data-name="Path 149" d="M388.547,87.85v6.307h-.966l-3.479-4.27v4.27H382.94V87.85h.966l3.479,4.27V87.85Z" transform="translate(-191.247 -43.877)" fill="#889387"/>
    <path id="Path_150" data-name="Path 150" d="M401.872,93.737a3.083,3.083,0,0,1-1.206-1.156,3.21,3.21,0,0,1-.436-1.667,3.127,3.127,0,0,1,1.652-2.823,3.543,3.543,0,0,1,1.727-.42,3.627,3.627,0,0,1,1.417.27,2.874,2.874,0,0,1,1.081.786l-.756.711a2.213,2.213,0,0,0-1.687-.741,2.349,2.349,0,0,0-1.161.285,2.029,2.029,0,0,0-.8.791,2.281,2.281,0,0,0-.29,1.146,2.244,2.244,0,0,0,.29,1.146,2.062,2.062,0,0,0,.8.791,2.349,2.349,0,0,0,1.161.285,2.215,2.215,0,0,0,1.687-.746l.756.721a2.906,2.906,0,0,1-1.086.786,3.627,3.627,0,0,1-1.417.27,3.556,3.556,0,0,1-1.727-.42Z" transform="translate(-199.881 -43.787)" fill="#889387"/>
    <path id="Path_151" data-name="Path 151" d="M417.81,87.85h1.171v6.307H417.81Z" transform="translate(-208.661 -43.877)" fill="#889387"/>
    <path id="Path_152" data-name="Path 152" d="M431.881,93.176v.981H427.15V87.85h4.605v.981h-3.434v1.642h3.044v.966h-3.044v1.737Z" transform="translate(-213.326 -43.877)" fill="#889387"/>
    <path id="Path_153" data-name="Path 153" d="M446.935,94.157l-1.287-1.847c-.055.005-.135.01-.245.01h-1.422v1.837H442.81V87.85H445.4a3.488,3.488,0,0,1,1.427.27,2.075,2.075,0,0,1,.931.776,2.356,2.356,0,0,1-.02,2.423,2.041,2.041,0,0,1-1,.766l1.452,2.072h-1.261Zm-.42-4.991a1.8,1.8,0,0,0-1.161-.325h-1.372v2.513h1.372a1.775,1.775,0,0,0,1.161-.33,1.141,1.141,0,0,0,.4-.931,1.124,1.124,0,0,0-.4-.926Z" transform="translate(-221.147 -43.877)" fill="#889387"/>
    <path id="Path_154" data-name="Path 154" d="M463.426,90.844h1.106v2.513a3.51,3.51,0,0,1-1.136.6,4.3,4.3,0,0,1-1.332.205,3.581,3.581,0,0,1-1.737-.42,3.206,3.206,0,0,1,.005-5.647,3.64,3.64,0,0,1,1.752-.42,3.793,3.793,0,0,1,1.442.26,2.876,2.876,0,0,1,1.091.766l-.741.721a2.37,2.37,0,0,0-1.737-.721,2.472,2.472,0,0,0-1.186.28,2.009,2.009,0,0,0-.811.786,2.249,2.249,0,0,0-.29,1.151,2.194,2.194,0,0,0,.29,1.136,2.088,2.088,0,0,0,.811.791,2.4,2.4,0,0,0,1.176.29,2.544,2.544,0,0,0,1.3-.325V90.844Z" transform="translate(-229.067 -43.787)" fill="#889387"/>
    <path id="Path_155" data-name="Path 155" d="M481.791,93.176v.981H477.06V87.85h4.605v.981h-3.434v1.642h3.044v.966h-3.044v1.737Z" transform="translate(-238.251 -43.877)" fill="#889387"/>
  </g>
</svg>
