<?xml version="1.0" encoding="UTF-8"?><svg id="_レイヤー_1" xmlns="http://www.w3.org/2000/svg" xmlns:xlink="http://www.w3.org/1999/xlink" viewBox="0 0 702.79 100.63"><defs><style>.cls-1{fill:url(#_名称未設定グラデーション_23);}.cls-1,.cls-2,.cls-3,.cls-4{stroke-width:0px;}.cls-2{fill:#889387;}.cls-3{fill:#1a6c49;}.cls-4{fill:#1f8419;}</style><linearGradient id="_名称未設定グラデーション_23" x1="186.6" y1="43.44" x2="207.54" y2="20.27" gradientUnits="userSpaceOnUse"><stop offset=".35" stop-color="#f3c800"/><stop offset="1" stop-color="#1a6c49"/></linearGradient></defs><path class="cls-3" d="M27.71,13.18h-6.26V.95c0-.32.26-.59.59-.59h5.09c.32,0,.59.26.59.59v12.23Z"/><path class="cls-3" d="M1.04,49.43L.01,44.44c-.06-.31.12-.62.44-.68,6.88-1.49,16.72-4.99,25.58-13.2,3.57-3.31,6.66-7.08,9.21-11.25H6.29v-5.68c0-.32.26-.59.59-.59h33.66c1.08,0,2.09.56,2.66,1.47s.63,2.06.15,3.03c-3.27,6.68-7.67,12.6-13.05,17.6-9.91,9.19-20.9,13.09-28.56,14.74-.32.07-.62-.14-.69-.46Z"/><path class="cls-3" d="M27.09,62.69h-5.09c-.32,0-.59-.26-.59-.59v-23.97h6.26v23.97c0,.32-.26.59-.59.59Z"/><path class="cls-3" d="M50.15,49.36c-.04.33-.34.57-.67.52-3.99-.53-7.9-1.54-11.64-3.03-4.74-1.89-9.15-4.49-13.09-7.75l3.99-4.83c3.44,2.84,7.28,5.12,11.42,6.76,3.24,1.29,6.63,2.17,10.1,2.63.32.04.54.32.5.64l-.6,5.05Z"/><rect class="cls-3" x="67.78" y="22.75" width="6.26" height="12.45" rx=".59" ry=".59"/><rect class="cls-3" x="78.47" y="22.75" width="6.26" height="12.45" rx=".59" ry=".59"/><path class="cls-3" d="M73.14,55.72c0-.33.26-.59.58-.59,2.11.02,8.97.02,9.25.01,1.09-.02,3.11-.05,4.95-1.21,2.56-1.62,3.09-4.37,3.2-5.33l.32-25.3c0-.32.27-.58.59-.58l5.09.07c.32,0,.58.27.58.59l-.33,25.44v.24c-.15,1.57-1.01,6.95-6.11,10.17-3.33,2.11-6.75,2.16-8.21,2.18-.16,0-.36,0-.58,0s-6.77,0-8.78-.01c-.32,0-.57-.26-.57-.59v-5.09Z"/><rect class="cls-3" x="120.32" y="1.95" width="6.26" height="59.95" rx=".59" ry=".59"/><path class="cls-3" d="M146.48,44.27c-.28.15-.62.05-.78-.23-1.21-2.16-3.29-5.04-6.65-7.37-5.26-3.65-10.8-4-13.64-3.89l-.26-6.26c3.61-.15,10.7.3,17.47,5,3.53,2.45,6.5,5.76,8.6,9.58.16.29.04.66-.25.81l-4.5,2.36Z"/><path class="cls-4" d="M176.5,63.44c-4.54,0-8.24-3.7-8.24-8.24V19.96c0-.45.36-.81.81-.81h4.7c.45,0,.81.36.81.81v35.25c0,1.06.86,1.92,1.92,1.92h38.32c1.06,0,1.92-.86,1.92-1.92v-1.11c0-.45.36-.81.81-.81h4.7c.45,0,.81.36.81.81v1.11c0,4.54-3.7,8.24-8.24,8.24h-38.32Z"/><path class="cls-3" d="M214.82,63.22h-38.32c-4.43,0-8.02-3.59-8.02-8.02V19.96c0-.32.26-.59.59-.59h4.7c.32,0,.59.26.59.59v35.25c0,1.18.96,2.15,2.15,2.15h38.32c1.18,0,2.14-.96,2.14-2.14v-1.11c0-.32.26-.59.59-.59h4.7c.32,0,.59.26.59.59v1.11c0,4.43-3.59,8.02-8.02,8.02Z"/><path class="cls-4" d="M217.56,48.64c-.45,0-.81-.36-.81-.81V12.27c0-1.06-.86-1.92-1.92-1.92h-38.32c-1.06,0-1.92.86-1.92,1.92v1.69c0,.45-.36.81-.81.81h-4.7c-.45,0-.81-.36-.81-.81v-1.69c0-4.54,3.7-8.24,8.24-8.24h38.32c4.54,0,8.24,3.7,8.24,8.24v35.57c0,.45-.36.81-.81.81h-4.7Z"/><path class="cls-3" d="M222.25,48.42h-4.7c-.32,0-.59-.26-.59-.59V12.27c0-1.18-.96-2.15-2.15-2.15h-38.32c-1.19,0-2.15.96-2.15,2.15v1.69c0,.32-.26.59-.59.59h-4.7c-.32,0-.59-.26-.59-.59v-1.69c0-4.43,3.59-8.02,8.02-8.02h38.32c4.43,0,8.02,3.59,8.02,8.02v35.57c0,.32-.26.59-.59.59Z"/><path class="cls-1" d="M210.62,23.22c-1.14-2.48-3.46-3.85-6.53-3.85-3.29,0-5.75,1.12-7.8,2.16-2.12,1.08-4.1,2.47-5.88,4.15-.34.33-.43.8-.23,1.11.13.19.37.31.65.31s.53-.11.72-.28c1.18-.9,2.43-1.7,3.85-2.46,1.84-.97,4.35-2.31,7.62-2.31.91,0,1.79.11,2.59.33,2.55.88,2.92,3.81,2.18,6.15-1.55,4.95-5.86,9.73-11.51,12.79-1.13.61-4.3,1.87-6.9,1.87-1.3,0-2.22-.32-2.74-.96-1.34-1.66-.28-5.5,2.48-9.02.72-1.45.4-3.21-.77-4.18-.56-.47-1.29-.72-2.06-.72-1.11,0-2.17.53-2.83,1.4-1.33,1.61-3.56,4.99-3.53,9.42,0,1.5.03,4.28,2.01,6.58,2,2.32,4.83,2.95,6.19,2.95h.07c6.43,0,12.38-3.27,18.19-10,4.41-5.12,6.1-11.33,4.21-15.46Z"/><path class="cls-3" d="M250.84,24.49l-8.33-6.9c-.81-.67-.94-1.85-.31-2.69l10.21-13.52c.2-.26.56-.31.82-.11l3.75,2.83c.26.2.31.56.11.82l-6.83,9.04c-.63.84-.49,2.02.31,2.69l4.01,3.32-3.75,4.52Z"/><path class="cls-3" d="M244.48,38.26c-1.11,0-2.12-.62-2.62-1.61-.5-.99-.4-2.18.26-3.07l16.85-22.78c.19-.26.56-.32.82-.12l3.78,2.79c.26.19.32.56.12.82l-11.99,16.21c-.57.78-.02,1.87.95,1.87l12.85-.03.02,5.87-21.02.04h0Z"/><path class="cls-3" d="M267.12,39.83c-1.59-.57-3.9-1.76-5.8-4.15-2.46-3.07-2.88-6.42-2.92-8.14l5.87-.11c.02.98.25,2.87,1.63,4.59,1.05,1.32,2.33,1.97,3.21,2.29l-1.99,5.53Z"/><path class="cls-3" d="M256.15,64.41h-4.7c-.32,0-.59-.26-.59-.59v-26.76h5.87v26.76c0,.32-.26.59-.59.59Z"/><rect class="cls-3" x="235.74" y="47.43" width="17.37" height="5.87" rx=".59" ry=".59" transform="translate(147.6 280.37) rotate(-78.81)"/><rect class="cls-3" x="259.78" y="41.53" width="5.87" height="13.4" rx=".59" ry=".59" transform="translate(-2.37 81.03) rotate(-17.46)"/><path class="cls-3" d="M297.06,33.43h-25.23c-1.62,0-2.94-1.31-2.94-2.94V10.47c0-1.62,1.31-2.94,2.94-2.94h25.23c1.62,0,2.94,1.31,2.94,2.94v20.02c0,1.62-1.31,2.94-2.94,2.94ZM274.77,27.56h19.36v-14.15h-19.36v14.15Z"/><path class="cls-3" d="M283.25,10.73l-5.48-2.11,3.17-8.25c.12-.3.46-.45.76-.34l4.39,1.69c.3.12.45.46.34.76l-3.17,8.25Z"/><path class="cls-3" d="M288.53,23.42h-15.72v-5.87h15.72c.32,0,.59.26.59.59v4.7c0,.32-.26.59-.59.59Z"/><path class="cls-3" d="M284.86,64.34h-6.41c-.32,0-.59-.26-.59-.59v-4.7c0-.32.26-.59.59-.59h3.47v-25.4h5.87v28.34c0,1.62-1.31,2.94-2.94,2.94Z"/><path class="cls-3" d="M268.61,62.06l-2.53-3.96c-.17-.27-.09-.62.17-.79,3.52-2.32,6.59-5.19,9.13-8.52,1.1-1.45,2.09-2.98,2.97-4.58l-7.86.06c-.32,0-.59-.26-.59-.58l-.04-4.7c0-.32.26-.59.58-.59l12.52-.1c.89-.01,1.9.47,2.45,1.28.55.81.67,1.84.3,2.75-1.43,3.58-3.34,6.95-5.66,10.01-2.95,3.88-6.52,7.21-10.62,9.91-.28.18-.65.1-.83-.18Z"/><path class="cls-3" d="M297.74,58.24c-1.72,0-3.72-.33-5.89-1.3-6.14-2.75-10.03-10.1-9.92-18.73l5.87.07c-.08,6.29,2.45,11.5,6.45,13.3,2.36,1.06,4.31.86,5.53.51,3.1-.9,4.72-3.71,5.27-4.89.13-.28.45-.4.73-.29l4.4,1.68c.31.12.47.47.33.77-.83,1.88-3.48,6.74-9.11,8.36-.98.28-2.22.51-3.66.51Z"/><rect class="cls-3" x="291.5" y="39.66" width="11.12" height="5.87" rx=".59" ry=".59" transform="translate(62.72 230.07) rotate(-46.82)"/><path class="cls-3" d="M362.59,56.59h-36.83c-.32,0-.59-.26-.59-.59v-5.09c0-.32.26-.59.59-.59h33.7V15.56h-33.7c-.32,0-.59-.26-.59-.59v-5.09c0-.32.26-.59.59-.59h36.83c1.73,0,3.13,1.4,3.13,3.13v41.03c0,1.73-1.4,3.13-3.13,3.13Z"/><path class="cls-3" d="M473.02,15.18h-21.44c-.32,0-.59-.26-.59-.59v-5.09c0-.32.26-.59.59-.59h21.55c.32,0,.59.26.59.59v4.98c0,.39-.31.7-.7.7Z"/><rect class="cls-3" x="504.88" y="30.91" width="25.54" height="6.26" rx=".59" ry=".59"/><rect class="cls-3" x="502.41" y="50.63" width="30.48" height="6.26" rx=".59" ry=".59"/><rect class="cls-3" x="451" y="20.55" width="22.73" height="6.26" rx=".59" ry=".59"/><rect class="cls-3" x="514.52" y="34.51" width="6.26" height="21.16"/><path class="cls-3" d="M548.6,56.77c-.21,0-.38,0-.38,0-.04-.01-.09-.03-.14-.07-.16-.13-.13-.38-.12-.42.1-2.84.2-4.91.24-5.21,0-.06.03-.25.17-.39.1-.1.24-.16.39-.17,1.74-.03,6.85-.47,10.13-4.65,2.28-2.89,2.58-6.13,2.56-7.8l.05-27.44c0-.32.26-.59.59-.59h5.09c.32,0,.59.27.59.6l-.05,27.39c.03,2.45-.43,7.3-3.9,11.71-5.06,6.43-12.59,7.04-15.22,7.04Z"/><path class="cls-3" d="M587.23,56.93c-3.33,0-7.2-.91-7.2-.91-.73-.15-1.36-.31-1.88-.44-.31-.08-.52-.36-.52-.68V9.24c0-.32.26-.59.59-.59h5.09c.32,0,.59.26.59.59v41.18c7.03,1.06,13.73-1.2,17.18-5.96,2.15-2.96,2.63-6.3,2.61-8.75,0-.32.24-.58.56-.59l5.08-.2c.33-.01.61.24.62.57.05,3.45-.61,8.25-3.8,12.64-4.08,5.62-11.19,8.8-18.92,8.8Z"/><path class="cls-3" d="M643.68,15.21h-21.55c-.32,0-.59-.26-.59-.59v-5.23c0-.25.2-.45.45-.45h21.82c.25,0,.45.2.45.45v5.23c0,.32-.26.59-.59.59Z"/><path class="cls-3" d="M643.68,26.85h-21.69c-.25,0-.45-.2-.45-.45v-5.36c0-.25.2-.45.45-.45h21.82c.25,0,.45.2.45.45v5.23c0,.32-.26.59-.59.59Z"/><rect class="cls-3" x="672.31" y="50.63" width="30.48" height="6.26" rx=".59" ry=".59"/><rect class="cls-3" x="650.88" y="8.65" width="6.26" height="9.22" rx=".59" ry=".59"/><rect class="cls-3" x="660.47" y="8.65" width="6.26" height="9.22" rx=".59" ry=".59"/><path class="cls-3" d="M688.9,52.66l-.07-14.17c0-.65-.54-1.17-1.19-1.17l-11.33.12c-.32,0-.59-.26-.59-.58l-.05-5.09c0-.32.26-.59.58-.59l13.94-.15c1.32,0,2.43.47,3.34,1.37.99.97,1.56,2.36,1.56,3.8l.08,16.43-6.26.03Z"/><rect class="cls-3" x="384.23" y="9.12" width="22.73" height="6.26" rx=".59" ry=".59"/><path class="cls-3" d="M413.31,56.73h-21.92c-.39,0-.7-.31-.7-.7v-5.6c0-.39.31-.7.7-.7h22.04c2.75,0,5.47-.93,7.49-2.8,2.19-2.03,3.38-4.82,3.36-7.79l-.25-29.67c0-.39.31-.7.69-.71l5.6-.05c.39,0,.7.31.71.69l.25,29.67c.04,4.71-1.77,9.14-5.09,12.48-3.38,3.4-8.08,5.16-12.88,5.16Z"/><path class="cls-3" d="M478.9,56.73h-21.92c-.39,0-.7-.31-.7-.7v-5.6c0-.39.31-.7.7-.7h22.04c2.75,0,5.47-.93,7.49-2.8,2.19-2.03,3.38-4.82,3.36-7.79l-.25-29.67c0-.39.31-.7.69-.71l5.6-.05c.39,0,.7.31.71.69l.25,29.67c.04,4.71-1.77,9.14-5.09,12.48-3.38,3.4-8.08,5.16-12.88,5.16Z"/><path class="cls-3" d="M648.99,58.07h-21.92c-.39,0-.7-.31-.7-.7v-5.6c0-.39.31-.7.7-.7h22.04c2.75,0,5.47-.93,7.49-2.8,2.19-2.03,3.88-4.82,3.85-7.79l-.25-16.02c0-.39.31-.7.69-.71l5.6-.05c.39,0,.7.31.71.69l.25,16.02c.04,4.71-2.26,9.14-5.58,12.48-3.38,3.4-8.08,5.16-12.88,5.16Z"/><path class="cls-2" d="M216.28,87.85h2.34v12.6h-2.34v-12.6Z"/><path class="cls-2" d="M236.82,87.85v12.6h-1.93l-6.95-8.53v8.53h-2.32v-12.6h1.93l6.95,8.53v-8.53h2.32Z"/><path class="cls-2" d="M246.36,89.83h-4.18v-1.98h10.69v1.98h-4.18v10.62h-2.34v-10.62Z"/><path class="cls-2" d="M267.69,98.49v1.96h-9.45v-12.6h9.2v1.96h-6.86v3.28h6.08v1.93h-6.08v3.47h7.11Z"/><path class="cls-2" d="M282.14,100.45l-2.57-3.69c-.11.01-.27.02-.49.02h-2.84v3.67h-2.34v-12.6h5.18c1.09,0,2.04.18,2.85.54s1.43.88,1.86,1.55c.43.67.65,1.47.65,2.39s-.23,1.76-.69,2.45-1.12,1.19-1.99,1.53l2.9,4.14h-2.52ZM281.3,90.48c-.53-.43-1.3-.65-2.32-.65h-2.74v5.02h2.74c1.02,0,1.79-.22,2.32-.66s.79-1.06.79-1.86-.26-1.42-.79-1.85Z"/><path class="cls-2" d="M301.85,87.85v12.6h-1.93l-6.95-8.53v8.53h-2.32v-12.6h1.93l6.95,8.53v-8.53h2.32Z"/><path class="cls-2" d="M318.29,98.49v1.96h-9.45v-12.6h9.2v1.96h-6.86v3.28h6.08v1.93h-6.08v3.47h7.11Z"/><path class="cls-2" d="M327.05,89.83h-4.18v-1.98h10.69v1.98h-4.18v10.62h-2.34v-10.62Z"/><path class="cls-2" d="M349.89,99.79c-1.03-.56-1.83-1.33-2.41-2.31-.58-.98-.87-2.09-.87-3.33s.29-2.35.88-3.33,1.4-1.75,2.42-2.31c1.03-.56,2.17-.84,3.45-.84,1.03,0,1.97.18,2.83.54.85.36,1.57.88,2.16,1.57l-1.51,1.42c-.91-.98-2.03-1.48-3.37-1.48-.86,0-1.64.19-2.32.57-.68.38-1.22.9-1.6,1.58-.38.67-.58,1.43-.58,2.29s.19,1.61.58,2.29c.38.67.92,1.2,1.6,1.58.68.38,1.46.57,2.32.57,1.33,0,2.45-.5,3.37-1.49l1.51,1.44c-.59.68-1.31,1.21-2.17,1.57-.86.36-1.8.54-2.83.54-1.27,0-2.42-.28-3.45-.84Z"/><path class="cls-2" d="M366.6,99.79c-1.03-.56-1.84-1.33-2.43-2.32s-.88-2.1-.88-3.32.29-2.33.88-3.32c.59-.99,1.4-1.76,2.43-2.32,1.03-.56,2.19-.84,3.47-.84s2.44.28,3.47.84,1.84,1.33,2.43,2.31c.59.98.88,2.09.88,3.33s-.29,2.35-.88,3.33c-.59.98-1.4,1.76-2.43,2.31-1.03.56-2.19.84-3.47.84s-2.44-.28-3.47-.84ZM372.34,98.01c.67-.38,1.2-.91,1.58-1.58.38-.68.58-1.44.58-2.28s-.19-1.6-.58-2.28c-.38-.68-.91-1.21-1.58-1.58s-1.43-.57-2.27-.57-1.6.19-2.27.57-1.2.91-1.58,1.58c-.38.68-.58,1.44-.58,2.28s.19,1.6.58,2.28c.38.68.91,1.21,1.58,1.58s1.43.57,2.27.57,1.6-.19,2.27-.57Z"/><path class="cls-2" d="M394.14,87.85v12.6h-1.93l-6.95-8.53v8.53h-2.32v-12.6h1.93l6.95,8.53v-8.53h2.32Z"/><path class="cls-2" d="M403.51,99.79c-1.03-.56-1.83-1.33-2.41-2.31-.58-.98-.87-2.09-.87-3.33s.29-2.35.88-3.33,1.4-1.75,2.42-2.31c1.03-.56,2.17-.84,3.45-.84,1.03,0,1.97.18,2.83.54.85.36,1.57.88,2.16,1.57l-1.51,1.42c-.91-.98-2.03-1.48-3.37-1.48-.86,0-1.64.19-2.32.57-.68.38-1.22.9-1.6,1.58-.38.67-.58,1.43-.58,2.29s.19,1.61.58,2.29c.38.67.92,1.2,1.6,1.58.68.38,1.46.57,2.32.57,1.33,0,2.45-.5,3.37-1.49l1.51,1.44c-.59.68-1.31,1.21-2.17,1.57-.86.36-1.8.54-2.83.54-1.27,0-2.42-.28-3.45-.84Z"/><path class="cls-2" d="M417.81,87.85h2.34v12.6h-2.34v-12.6Z"/><path class="cls-2" d="M436.6,98.49v1.96h-9.45v-12.6h9.2v1.96h-6.86v3.28h6.08v1.93h-6.08v3.47h7.11Z"/><path class="cls-2" d="M451.05,100.45l-2.57-3.69c-.11.01-.27.02-.49.02h-2.84v3.67h-2.34v-12.6h5.18c1.09,0,2.04.18,2.85.54.81.36,1.43.88,1.86,1.55.43.67.65,1.47.65,2.39s-.23,1.76-.69,2.45-1.12,1.19-1.99,1.53l2.9,4.14h-2.52ZM450.21,90.48c-.53-.43-1.3-.65-2.32-.65h-2.74v5.02h2.74c1.02,0,1.79-.22,2.32-.66s.79-1.06.79-1.86-.26-1.42-.79-1.85Z"/><path class="cls-2" d="M468.17,94.01h2.21v5.02c-.65.52-1.4.91-2.27,1.19s-1.75.41-2.66.41c-1.28,0-2.44-.28-3.47-.84-1.03-.56-1.84-1.33-2.43-2.31-.59-.98-.88-2.09-.88-3.33s.29-2.35.88-3.33,1.4-1.75,2.44-2.31c1.04-.56,2.21-.84,3.5-.84,1.06,0,2.02.17,2.88.52s1.59.86,2.18,1.53l-1.48,1.44c-.96-.96-2.12-1.44-3.47-1.44-.89,0-1.68.19-2.37.56-.69.37-1.23.89-1.62,1.57-.39.67-.58,1.44-.58,2.3s.19,1.6.58,2.27c.39.67.93,1.2,1.62,1.58.69.38,1.47.58,2.35.58.98,0,1.85-.22,2.59-.65v-3.92Z"/><path class="cls-2" d="M486.51,98.49v1.96h-9.45v-12.6h9.2v1.96h-6.86v3.28h6.08v1.93h-6.08v3.47h7.11Z"/></svg>